#tb 0: 1/24
#media_type 0: video
#codec_id 0: rawvideo
#dimensions 0: 480x257
#sar 0: 0/1
0,          1,          1,        1,   185280, 0x044209c4
0,          2,          2,        1,   185280, 0x427ef9a7
0,          3,          3,        1,   185280, 0x8f771cc8
0,          4,          4,        1,   185280, 0xb40d0e52
0,          5,          5,        1,   185280, 0x2e6ee461
0,          6,          6,        1,   185280, 0x681ba513
0,          7,          7,        1,   185280, 0x998c5676
0,          8,          8,        1,   185280, 0xf91003ec
0,          9,          9,        1,   185280, 0x322ed3de
0,         10,         10,        1,   185280, 0xb1c9370a
0,         11,         11,        1,   185280, 0x41423b36
0,         12,         12,        1,   185280, 0x0b9284e4
0,         13,         13,        1,   185280, 0x185789b2
0,         14,         14,        1,   185280, 0x8f0bece0
0,         15,         15,        1,   185280, 0xfcd9450e
0,         16,         16,        1,   185280, 0x509d868b
0,         17,         17,        1,   185280, 0x71fd9ae3
0,         18,         18,        1,   185280, 0x3dad1b3c
0,         19,         19,        1,   185280, 0x69ba37dd
